<?xml version="1.0" encoding="utf-8"?>
<!-- Generator: Adobe Illustrator 22.1.0, SVG Export Plug-In . SVG Version: 6.00 Build 0)  -->
<svg version="1.1" id="Layer_1" xmlns="http://www.w3.org/2000/svg" xmlns:xlink="http://www.w3.org/1999/xlink" x="0px" y="0px"
	 viewBox="0 0 18 16.6" style="enable-background:new 0 0 18 16.6;" xml:space="preserve">
<style type="text/css">
	.st0{fill:#282828;}
</style>
<g id="Layer_1_1_">
	<g>
		<path class="st0" d="M17.4,2.3C17.3,2.1,17,2,16.8,2H4.3L4.1,1C4.1,0.5,3.7,0.2,3.2,0.2h-2c-0.5,0-0.9,0.4-0.9,0.9S0.7,2,1.2,2
			h1.3l1.7,10.1c0,0,0,0.1,0,0.1c0,0,0,0.1,0,0.1c0,0.1,0.1,0.1,0.1,0.2c0,0,0.1,0.1,0.1,0.1c0.1,0,0.1,0.1,0.2,0.1
			c0,0,0.1,0,0.1,0.1c0.1,0,0.2,0.1,0.3,0.1c0,0,9.9,0,9.9,0c0.5,0,0.9-0.4,0.9-0.9c0-0.5-0.4-0.9-0.9-0.9H5.8l-0.1-0.9h10.2
			c0.4,0,0.8-0.3,0.9-0.8L17.7,3C17.7,2.8,17.6,2.5,17.4,2.3z M15.7,3.8l-0.3,1.8h-3.2V3.8H15.7z M11.4,3.8v1.8H8.7V3.8H11.4z
			 M11.4,6.5v1.8H8.7V6.5H11.4z M7.7,3.8v1.8H5c0,0-0.1,0-0.1,0L4.6,3.8H7.7z M5.1,6.5h2.7v1.8H5.4L5.1,6.5z M12.3,8.3V6.5h3.1
			l-0.3,1.8H12.3z"/>
		<circle class="st0" cx="6.4" cy="15.1" r="1.4"/>
		<circle class="st0" cx="14.5" cy="15.1" r="1.4"/>
	</g>
</g>
</svg>
