<?xml version="1.0" encoding="utf-8"?>
<!-- Generator: Adobe Illustrator 22.1.0, SVG Export Plug-In . SVG Version: 6.00 Build 0)  -->
<svg version="1.1" id="Layer_1" xmlns="http://www.w3.org/2000/svg" xmlns:xlink="http://www.w3.org/1999/xlink" x="0px" y="0px"
	 viewBox="0 0 11.9 19.9" style="enable-background:new 0 0 11.9 19.9;" xml:space="preserve">
<style type="text/css">
	.st0{fill:#FFFFFF;}
</style>
<path class="st0" d="M8.3,16.8c0,0.2-0.2,0.4-0.4,0.4H4c-0.2,0-0.4-0.2-0.4-0.4s0.2-0.4,0.4-0.4h3.9C8.1,16.4,8.3,16.5,8.3,16.8z
	 M7.9,14.8H4c-0.2,0-0.4,0.2-0.4,0.4c0,0.2,0.2,0.4,0.4,0.4h3.9c0.2,0,0.4-0.2,0.4-0.4C8.3,15,8.1,14.8,7.9,14.8z M4.9,19.2
	c0.1,0.2,0.4,0.3,0.6,0.3h0.9c0.2,0,0.4-0.1,0.6-0.3l1.1-1.3H3.8L4.9,19.2z M11.5,5.9c0,3.3-2.9,5.5-2.9,8.1H3.4
	c0-2.6-2.9-4.8-2.9-8.1c0-3.4,2.7-5.3,5.5-5.3C8.7,0.6,11.5,2.5,11.5,5.9z M5.4,3.6L5.2,2.6c-1.6,0.3-2.6,1.5-2.8,3l0.9,0.1
	C3.5,5.1,3.9,3.8,5.4,3.6z"/>
</svg>
